<?xml version="1.0" encoding="iso-8859-1"?>
<!-- Generator: Adobe Illustrator 19.0.0, SVG Export Plug-In . SVG Version: 6.00 Build 0)  -->
<svg xmlns="http://www.w3.org/2000/svg" xmlns:xlink="http://www.w3.org/1999/xlink" version="1.1" id="Capa_1" x="0px" y="0px" viewBox="0 0 480 480" style="enable-background:new 0 0 480 480;" xml:space="preserve" width="512px" height="512px">
<g>
	<g>
		<path d="M263.996,139.8c27.92-9.912,48-36.52,48-67.8c0-39.704-32.296-72-72-72c-39.704,0-72,32.296-72,72    c0,31.28,20.08,57.888,48,67.8V168v48c-4.424,0-8,3.576-8,8v64v80v64c0,4.424,3.576,8,8,8v16c0,13.232,10.768,24,24,24    s24-10.768,24-24v-16c4.424,0,8-3.576,8-8v-64v-80v-64c0-4.424-3.576-8-8-8v-48V139.8z M247.996,456c0,4.416-3.584,8-8,8    c-4.416,0-8-3.584-8-8v-16h16V456z M255.996,424h-32v-48h32V424z M255.996,360h-32v-64h32V360z M255.996,280h-32v-48h32V280z     M247.996,176v40h-16v-40H247.996z M231.996,160v-16h16v16H231.996z M239.996,128c-30.872,0-56-25.128-56-56s25.128-56,56-56    s56,25.128,56,56S270.868,128,239.996,128z" fill="#FFFFFF"/>
	</g>
</g>
<g>
	<g>
		<path d="M239.996,24c-26.472,0-48,21.528-48,48s21.528,48,48,48s48-21.528,48-48S266.468,24,239.996,24z M239.996,104    c-17.648,0-32-14.352-32-32s14.352-32,32-32s32,14.352,32,32S257.644,104,239.996,104z" fill="#FFFFFF"/>
	</g>
</g>
<g>
	<g>
		<path d="M397.676,266.32c-2.96-2.96-8.4-2.96-11.36,0c-1.448,1.512-2.32,3.6-2.32,5.68c0,2.16,0.8,4.16,2.32,5.6    c0.8,0.8,1.6,1.36,2.64,1.76c0.96,0.4,2,0.64,3.04,0.64c1.04,0,2.08-0.24,3.04-0.64s1.832-0.96,2.64-1.76    c0.72-0.728,1.28-1.6,1.68-2.56c0.4-0.96,0.64-2,0.64-3.04C399.996,269.92,399.116,267.832,397.676,266.32z" fill="#FFFFFF"/>
	</g>
</g>
<g>
	<g>
		<path d="M397.676,314.32c-0.4-0.32-0.808-0.72-1.28-0.96c-0.4-0.32-0.88-0.56-1.36-0.72c-0.488-0.24-0.96-0.4-1.52-0.488    c-2.552-0.552-5.36,0.32-7.192,2.168c-1.456,1.512-2.328,3.6-2.328,5.68c0,1.04,0.16,2.08,0.552,3.04    c0.488,0.96,1.048,1.832,1.768,2.56c0.8,0.8,1.6,1.36,2.64,1.76c0.96,0.4,2,0.64,3.04,0.64c2.16,0,4.16-0.808,5.68-2.4    c0.72-0.728,1.28-1.6,1.68-2.56c0.4-0.96,0.64-2,0.64-3.04C399.996,317.92,399.116,315.832,397.676,314.32z" fill="#FFFFFF"/>
	</g>
</g>
<g>
	<g>
		<path d="M446.004,13.544C438.404,4.936,427.468,0,415.996,0h-16c-22.056,0-40,17.944-40,40v32c0,16.36,9.896,30.416,24,36.608V128    h-8c-4.424,0-8,3.576-8,8v32v48c-4.424,0-8,3.576-8,8v176v32c0,4.424,3.576,8,8,8v16c0,13.232,10.768,24,24,24s24-10.768,24-24    v-16c4.424,0,8-3.576,8-8v-32V224c0-4.424-3.576-8-8-8v-48v-32c0-4.424-3.576-8-8-8h-8v-16c4.424,0,8-3.576,8-8s-3.576-8-8-8    c-13.232,0-24-10.768-24-24V40c0-13.232,10.768-24,24-24h16c6.88,0,13.448,2.968,18.008,8.144    c2.944,3.312,7.984,3.632,11.296,0.704C448.612,21.92,448.924,16.856,446.004,13.544z M383.996,176h16v40h-16V176z M399.996,456    c0,4.416-3.584,8-8,8c-4.416,0-8-3.584-8-8v-16h16V456z M407.996,424h-32v-16h32V424z M407.996,232v160h-32V232H407.996z     M399.996,160h-16v-16h16V160z" fill="#FFFFFF"/>
	</g>
</g>
<g>
	<g>
		<path d="M135.996,368h-16V120c0-4.424-3.576-8-8-8h-1.76l-6.488-25.936C102.86,82.496,99.668,80,95.996,80V40    c0-2.432-1.104-4.728-3-6.248l-40-32C49.532-1.016,44.508-0.432,41.748,3c-2.76,3.456-2.2,8.488,1.248,11.248l37,29.592V80    c-3.672,0-6.864,2.496-7.76,6.064L65.756,112h-1.76c-4.424,0-8,3.576-8,8v248h-16c-4.424,0-8,3.576-8,8s3.576,8,8,8h24v80h-8    c-4.424,0-8,3.576-8,8s3.576,8,8,8h16h32h16c4.424,0,8-3.576,8-8s-3.576-8-8-8h-8v-80h24c4.424,0,8-3.576,8-8    S140.42,368,135.996,368z M86.244,96h3.504l4,16H82.244L86.244,96z M95.996,464h-16v-80h16V464z M103.996,368h-32v-48h8    c4.424,0,8-3.576,8-8s-3.576-8-8-8h-8v-32h8c4.424,0,8-3.576,8-8s-3.576-8-8-8h-8v-32h8c4.424,0,8-3.576,8-8s-3.576-8-8-8h-8v-32    h8c4.424,0,8-3.576,8-8s-3.576-8-8-8h-8v-32h32V368z" fill="#FFFFFF"/>
	</g>
</g>
<g>
</g>
<g>
</g>
<g>
</g>
<g>
</g>
<g>
</g>
<g>
</g>
<g>
</g>
<g>
</g>
<g>
</g>
<g>
</g>
<g>
</g>
<g>
</g>
<g>
</g>
<g>
</g>
<g>
</g>
</svg>
