<?xml version="1.0" encoding="iso-8859-1"?>
<!-- Generator: Adobe Illustrator 19.0.0, SVG Export Plug-In . SVG Version: 6.00 Build 0)  -->
<svg xmlns="http://www.w3.org/2000/svg" xmlns:xlink="http://www.w3.org/1999/xlink" version="1.1" id="Capa_1" x="0px" y="0px" viewBox="0 0 481.273 481.273" style="enable-background:new 0 0 481.273 481.273;" xml:space="preserve" width="512px" height="512px">
<g>
	<g>
		<path d="M427.137,33.008c-15.24-9.024-45.136-8.648-66.848-8.376c-3.24,0.04-6.256,0.08-8.944,0.08    c-24.816,0-45.024,6.08-63.384,18.984c-2.048,1.344-4.008,2.808-6.488,4.672l-0.904,0.68c-0.32,0.24-0.632,0.488-0.944,0.736    c-2.736-2.192-5.448-4.168-8.152-5.944c-18.56-13.048-38.768-19.128-63.584-19.128c-2.688,0-5.704-0.04-8.944-0.08    c-21.784-0.232-51.616-0.64-66.448,8.144c-26.136,13.424-42.4,37.112-49.808,71.96H30.905c-12.856,0-23.392,10.064-23.976,22.912    L0.025,279.536c-0.376,8.304,3.48,16.096,10.312,20.824l87.624,60.656c4.08,2.832,8.864,4.24,13.656,4.24    c4.784,0,9.576-1.416,13.664-4.24l5.072-3.512c5.432,27.864,10.328,52.312,13.896,69.888c2.784,13.728,13.008,24.48,26.328,27.952    c3.032,0.928,5.856,1.392,8.624,1.392c0.416,0,0.768,0,1,0h33.928c0.464,0,0.72,0,0.944,0c2.536,0,5.168-0.4,7.752-1.136    c12.56-3.08,22.68-12.608,26.536-25.344l21.888-91.104c1.536-4.848,5.672-5.576,7.376-5.664c2.992-0.192,7.168,1.312,9.408,5.872    l21.984,91.352c3.728,12.272,13.848,21.808,26.136,24.808c2.856,0.816,5.488,1.216,8.016,1.216c0.32,0.008,0.704,0.008,0.936,0    h33.928c0.416,0,0.744,0,1,0c2.768,0,5.592-0.464,8.28-1.296c13.664-3.568,23.88-14.328,26.672-28.056    c6.288-31.016,18.496-92.128,29.976-154.792c20.784-29.752,36.312-80.04,36.312-117.944    C481.281,91.496,463.441,51.624,427.137,33.008z M116.169,347.856c-2.736,1.888-6.392,1.88-9.104,0L19.449,287.2    c-2.28-1.576-3.56-4.168-3.432-6.944l6.904-151.872c0.192-4.296,3.696-7.648,7.984-7.648h161.424c4.288,0,7.8,3.352,7.992,7.632    l6.904,151.888c0.128,2.768-1.16,5.36-3.44,6.936L116.169,347.856z M430.929,264.736c-0.696,0.96-1.168,2.072-1.376,3.24    c-11.552,63.136-23.904,124.976-30.248,156.224c-1.552,7.704-7.32,13.736-15.376,15.848c-1.36,0.424-2.496,0.632-3.552,0.672    c-0.152-0.016-0.288-0.024-0.4-0.032c-0.224-0.008-0.696,0.032-0.936,0.04l-33.28,0.032c-0.496-0.048-1.216-0.08-1.88-0.04    c-0.976-0.032-2.08-0.224-3.656-0.672c-7.096-1.736-12.808-7.096-14.776-13.528l-22.048-91.656    c-0.112-0.456-0.256-0.896-0.448-1.32c-4.472-10.288-14.296-16.664-25.16-16.032c-10.168,0.512-18.728,7.112-21.96,17.352    l-21.92,91.192c-2.096,6.896-7.8,12.256-15.184,14.072c-1.448,0.424-2.616,0.608-3.664,0.608c0.112,0,0.213,0.016,0.321,0.02    c-0.461-0.016-1.021-0.02-1.265-0.02l-33.248,0.04c-0.36-0.048-0.88-0.088-1.312-0.088c-0.224,0.008-0.4,0.016-0.688,0.04    c-1.064-0.04-2.24-0.256-3.912-0.776c-7.712-2.016-13.48-8.056-15.04-15.76c-3.848-18.96-9.256-45.992-15.208-76.648l68.176-47.2    c6.832-4.728,10.696-12.512,10.32-20.824l-6.904-151.888c-0.584-12.832-11.12-22.896-23.976-22.896H99.033    c6.664-28.064,20.056-47.08,41.2-57.952c11.384-6.744,40.896-6.4,58.52-6.152c3.312,0.04,6.392,0.08,9.144,0.08    c21.36,0,38.648,5.16,54.592,16.36c2.248,1.472,4.456,3.112,6.664,4.864c-18.192,20.008-29.536,46.328-29.536,74.8    c0,4.424,3.584,8,8,8c4.424,0,8-3.576,8-8c0-46.376,38.472-96.024,95.728-96.024c2.752,0,5.832-0.04,9.144-0.08    c17.6-0.232,47.136-0.584,58.928,6.376c31.296,16.072,45.864,50.272,45.864,107.64    C465.281,190.248,450.513,237.576,430.929,264.736z" fill="#FFFFFF"/>
	</g>
</g>
<g>
	<g>
		<path d="M247.617,160.736c-4.416,0-8,3.576-8,8v16c0,4.424,3.584,8,8,8c4.424,0,8-3.576,8-8v-16    C255.617,164.312,252.041,160.736,247.617,160.736z" fill="#FFFFFF"/>
	</g>
</g>
<g>
	<g>
		<path d="M151.617,200.736h-16v-16c0-4.424-3.584-8-8-8h-32c-4.416,0-8,3.576-8,8v16h-16c-4.416,0-8,3.576-8,8v32    c0,4.424,3.584,8,8,8h16v16c0,4.424,3.584,8,8,8h32c4.416,0,8-3.576,8-8v-16h16c4.416,0,8-3.576,8-8v-32    C159.617,204.312,156.033,200.736,151.617,200.736z M143.617,232.736h-16c-4.416,0-8,3.576-8,8v16h-16v-16c0-4.424-3.584-8-8-8    h-16v-16h16c4.416,0,8-3.576,8-8v-16h16v16c0,4.424,3.584,8,8,8h16V232.736z" fill="#FFFFFF"/>
	</g>
</g>
<g>
	<g>
		<path d="M111.617,144.736c-44.112,0-80,35.888-80,80s35.888,80,80,80s80-35.888,80-80S155.729,144.736,111.617,144.736z     M111.617,288.736c-35.288,0-64-28.712-64-64c0-35.288,28.712-64,64-64s64,28.712,64,64    C175.617,260.024,146.905,288.736,111.617,288.736z" fill="#FFFFFF"/>
	</g>
</g>
<g>
	<g>
		<path d="M435.449,137.72l-23.8-13.024l-13.024-23.8c-2.8-5.144-11.232-5.144-14.032,0l-13.024,23.8l-23.8,13.024    c-2.56,1.4-4.152,4.096-4.152,7.016s1.592,5.616,4.168,7.016l23.8,13.024l13.024,23.8c1.392,2.568,4.088,4.16,7.008,4.16    c2.92,0,5.616-1.592,7.016-4.168l13.024-23.8l23.8-13.024c2.568-1.392,4.16-4.088,4.16-7.008S438.025,139.12,435.449,137.72z     M401.921,151.864c-1.344,0.736-2.448,1.832-3.176,3.176l-7.128,13.024l-7.128-13.024c-0.736-1.344-1.832-2.448-3.176-3.176    l-13.024-7.128l13.024-7.128c1.344-0.736,2.448-1.832,3.176-3.176l7.128-13.024l7.128,13.024c0.736,1.344,1.832,2.448,3.176,3.176    l13.024,7.128L401.921,151.864z" fill="#FFFFFF"/>
	</g>
</g>
<g>
</g>
<g>
</g>
<g>
</g>
<g>
</g>
<g>
</g>
<g>
</g>
<g>
</g>
<g>
</g>
<g>
</g>
<g>
</g>
<g>
</g>
<g>
</g>
<g>
</g>
<g>
</g>
<g>
</g>
</svg>
