<?xml version="1.0" encoding="iso-8859-1"?>
<!-- Generator: Adobe Illustrator 19.0.0, SVG Export Plug-In . SVG Version: 6.00 Build 0)  -->
<svg xmlns="http://www.w3.org/2000/svg" xmlns:xlink="http://www.w3.org/1999/xlink" version="1.1" id="Capa_1" x="0px" y="0px" viewBox="0 0 480 480" style="enable-background:new 0 0 480 480;" xml:space="preserve" width="512px" height="512px">
<g>
	<g>
		<path d="M209.824,218.536C208.32,216.912,206.208,216,204,216h-40.896l-4.984-41.88c-0.952-8.048-7.784-14.12-15.896-14.12H140    v-24v-29.48c18.888-9.008,32-28.24,32-50.52c0-30.872-25.128-56-56-56S60,25.128,60,56c0,22.28,13.112,41.504,32,50.52V136v24    h-2.224c-8.112,0-14.936,6.072-15.888,14.112L68.896,216H28c-2.208,0-4.32,0.912-5.832,2.528    c-1.512,1.608-2.288,3.776-2.152,5.984l15.512,240.512C36.08,473.432,43.096,480,51.504,480H52h128h0.496    c8.408,0,15.424-6.568,15.968-14.968l15.512-240.512C212.12,222.312,211.344,220.144,209.824,218.536z M76,56    c0-22.056,17.944-40,40-40c22.056,0,40,17.944,40,40c0,22.056-17.944,40-40,40C93.944,96,76,78.056,76,56z M108,128v-16h16v16H108    z M124,144v16h-16v-16H124z M89.776,176H100h8v8c0,4.424,3.576,8,8,8s8-3.576,8-8v-8h8h10.224l4.768,40H85.008L89.776,176z     M84,232h64v80H84V232z M84,328h64v16H84V328z M84,360h64v16H84V360z M84,392h64v16c0,4.416-3.584,8-8,8H92c-4.416,0-8-3.584-8-8    V392z M48.4,416L36.528,232H68v88v32v32v24c0,2.816,0.576,5.488,1.472,8H48.4z M52,464v-32h40h48h40l0.016,32H52z M183.6,416    h-21.08c0.904-2.512,1.48-5.184,1.48-8v-24v-32v-32v-88h31.472L183.6,416z" fill="#FFFFFF"/>
	</g>
</g>
<g>
	<g>
		<path d="M105.68,42.32c-0.808-0.72-1.68-1.28-2.64-1.68c-2.96-1.28-6.488-0.56-8.72,1.68C92.872,43.832,92,45.832,92,48    c0,2.16,0.8,4.16,2.32,5.68C95.832,55.192,97.832,56,100,56c2.16,0,4.16-0.808,5.68-2.32c1.512-1.52,2.32-3.52,2.32-5.68    C108,45.832,107.12,43.832,105.68,42.32z" fill="#FFFFFF"/>
	</g>
</g>
<g>
	<g>
		<path d="M137.68,42.32c-3.04-2.96-8.4-2.96-11.36,0c-1.448,1.512-2.32,3.6-2.32,5.68c0,1.04,0.16,2.08,0.64,3.04    c0.4,0.96,0.96,1.832,1.68,2.64c1.512,1.512,3.512,2.32,5.68,2.32c2.16,0,4.16-0.808,5.68-2.32c0.72-0.808,1.28-1.68,1.68-2.64    c0.4-0.96,0.64-2,0.64-3.04C140,45.92,139.12,43.832,137.68,42.32z" fill="#FFFFFF"/>
	</g>
</g>
<g>
	<g>
		<path d="M121.68,66.32c-1.84-1.84-4.64-2.72-7.28-2.168c-0.48,0.088-0.96,0.24-1.44,0.488c-0.488,0.16-0.96,0.4-1.448,0.72    c-0.4,0.24-0.8,0.64-1.192,0.96c-1.448,1.512-2.32,3.6-2.32,5.68c0,1.04,0.24,2.08,0.64,3.04c0.4,0.96,0.96,1.832,1.68,2.64    c1.512,1.512,3.512,2.32,5.68,2.32c2.16,0,4.16-0.808,5.68-2.32c0.72-0.808,1.28-1.68,1.68-2.64c0.472-0.96,0.64-2,0.64-3.04    C124,69.92,123.12,67.832,121.68,66.32z" fill="#FFFFFF"/>
	</g>
</g>
<g>
	<g>
		<path d="M116,248c-4.424,0-8,3.576-8,8v32c0,4.424,3.576,8,8,8s8-3.576,8-8v-32C124,251.576,120.424,248,116,248z" fill="#FFFFFF"/>
	</g>
</g>
<g>
	<g>
		<path d="M457.784,2.472C456.264,0.888,454.176,0,452,0H260c-2.176,0-4.264,0.888-5.784,2.472    c-1.504,1.576-2.304,3.696-2.208,5.872l2.784,64v0.008l13.216,303.992c0.008,0.144,0.088,0.264,0.096,0.408    c0.016,0.128-0.048,0.256-0.024,0.384l8,56c0.016,0.088,0.064,0.16,0.08,0.248c0.008,0.064-0.016,0.128-0.008,0.192l6.712,33.576    c1.504,7.44,8.096,12.848,15.688,12.848H413.44c7.592,0,14.184-5.408,15.688-12.856l6.712-33.568    c0.016-0.064-0.016-0.128-0.008-0.192c0.016-0.088,0.072-0.16,0.08-0.248l8-56c0.016-0.128-0.04-0.256-0.024-0.384    c0.016-0.144,0.088-0.264,0.096-0.408L457.2,72.352v-0.008l2.792-64C460.088,6.168,459.288,4.048,457.784,2.472z M413.44,464    H298.56l-4.8-24H324h64h30.24L413.44,464z M332,424v-8h48v8H332z M421.064,424H396v-8c0-8.824-7.176-16-16-16h-48    c-8.824,0-16,7.176-16,16v8h-25.064l-5.712-40h141.544L421.064,424z M428.344,368H283.656l-12.52-288h169.728L428.344,368z     M441.56,64H270.44l-2.088-48H300v8c0,4.424,3.576,8,8,8s8-3.576,8-8v-8h32v8c0,4.424,3.576,8,8,8s8-3.576,8-8v-8h32v8    c0,4.424,3.576,8,8,8s8-3.576,8-8v-8h31.648L441.56,64z" fill="#FFFFFF"/>
	</g>
</g>
<g>
	<g>
		<path d="M388,144h-64c-13.232,0-24,11.424-24,25.456v24.384c0,2.2,0.408,4.352,1.2,6.36l17.896,45.584    c2.232,5.656,7.232,9.584,13.064,10.248c5.688,0.584,11.368-1.968,14.736-6.856l8.904-13.52l9.304,13.528    c3.016,4.384,7.88,6.944,12.992,6.944c0.576,0,1.16-0.032,1.736-0.096c5.832-0.664,10.832-4.592,13.064-10.264l17.24-43.896    c1.24-3.12,1.864-6.424,1.864-9.824v-22.592C412,155.424,401.232,144,388,144z M396,192.048c0,1.376-0.248,2.696-0.744,3.952    l-16.968,44.112l-9.296-13.512c-2.992-4.368-7.848-6.968-12.992-6.968c-5.144,0-10,2.6-12.992,6.96l-9.016,13.336L316,193.832    v-24.384c0-5.208,3.584-9.448,8-9.448h27.232c-2,4.696-3.232,10.096-3.232,16c0,4.424,3.576,8,8,8s8-3.576,8-8    c0-9.768,4.736-16,8-16h16c4.416,0,8,4.24,8,9.456V192.048z" fill="#FFFFFF"/>
	</g>
</g>
<g>
	<g>
		<path d="M388,312h-64c-4.424,0-8,3.576-8,8s3.576,8,8,8h64c4.424,0,8-3.576,8-8S392.424,312,388,312z" fill="#FFFFFF"/>
	</g>
</g>
<g>
	<g>
		<path d="M380,280h-48c-4.424,0-8,3.576-8,8s3.576,8,8,8h48c4.424,0,8-3.576,8-8S384.424,280,380,280z" fill="#FFFFFF"/>
	</g>
</g>
<g>
</g>
<g>
</g>
<g>
</g>
<g>
</g>
<g>
</g>
<g>
</g>
<g>
</g>
<g>
</g>
<g>
</g>
<g>
</g>
<g>
</g>
<g>
</g>
<g>
</g>
<g>
</g>
<g>
</g>
</svg>
